# xmcd CD database file
#
# Track frame offsets:
#	150
#	49147
#	72581
#	109638
#	146340
#	167077
#
# Disc length: 2629 seconds
#
# Revision: 0
# Processed by: cddbd v1.5.1PL0 Copyright (c) Steve Scherf et al.
# Submitted via: CDex 1.51
#
DISCID=510a4306
DTITLE=John Coltrane - Live At Birdland 1996 Reissue Version
DYEAR=1996
DGENRE=Jazz
TTITLE0=Afro-Blue
TTITLE1=I Want To Talk About You
TTITLE2=The Promise
TTITLE3=Alabama
TTITLE4=Your Lady
TTITLE5=Vilia
EXTD=YEAR: 1996
EXTT0=
EXTT1=
EXTT2=
EXTT3=
EXTT4=
EXTT5=
PLAYORDER=
